<svg width="889" height="889" viewBox="0 0 889 889" fill="none" xmlns="http://www.w3.org/2000/svg">
<rect width="889" height="889" rx="64" fill="black"/>
<path fill-rule="evenodd" clip-rule="evenodd" d="M239.395 156.798C240.776 159.987 241.905 163.568 241.905 164.756C241.905 165.944 242.556 166.916 243.351 166.916C244.147 166.916 244.798 168.544 244.798 170.533C244.798 172.523 245.448 174.151 246.244 174.151C247.039 174.151 247.69 175.323 247.69 176.755C247.69 178.188 248.207 179.979 248.841 180.734C249.474 181.491 250.849 184.713 251.899 187.896C253.977 194.201 257.289 202.357 259.38 206.324C260.109 207.706 260.705 209.823 260.705 211.027C260.705 212.232 261.355 213.217 262.151 213.217C262.946 213.217 263.597 215.132 263.597 217.473C263.597 219.814 264.221 222.114 264.985 222.586C265.747 223.058 267.494 227.003 268.863 231.353C270.234 235.702 271.887 239.262 272.538 239.262C273.187 239.262 273.719 241.215 273.719 243.602C273.719 245.99 274.37 247.943 275.165 247.943C275.961 247.943 276.611 249.206 276.611 250.752C276.611 252.297 277.262 253.962 278.058 254.454C278.853 254.946 279.508 256.45 279.512 257.795C279.518 259.141 280.494 262.107 281.681 264.386C282.87 266.666 283.842 269.758 283.842 271.259C283.842 272.759 284.493 273.988 285.288 273.988C286.083 273.988 286.734 275.29 286.734 276.881C286.734 278.473 287.385 279.775 288.18 279.775C288.976 279.775 289.626 281.034 289.626 282.574C289.626 285.103 295.145 299.883 298.433 306.161C299.157 307.543 299.749 309.66 299.749 310.864C299.749 312.069 300.4 313.054 301.195 313.054C301.99 313.054 302.641 314.682 302.641 316.672C302.641 318.661 303.13 320.289 303.726 320.289C304.321 320.289 306.087 324.521 307.647 329.694C309.208 334.867 310.998 339.099 311.624 339.099C312.25 339.099 312.764 340.727 312.764 342.716C312.764 344.706 313.414 346.333 314.21 346.333C315.005 346.333 315.656 347.596 315.656 349.142C315.656 350.687 316.15 352.257 316.756 352.63C317.362 353.005 319.151 357.6 320.733 362.844C322.315 368.088 324.098 372.378 324.694 372.378C325.29 372.378 325.779 373.68 325.779 375.272C325.779 376.863 326.355 378.165 327.061 378.165C327.765 378.165 328.672 379.957 329.074 382.144C330.029 387.329 335.892 403.093 337.525 404.861C338.222 405.616 338.793 407.408 338.793 408.84C338.793 410.272 339.444 411.444 340.239 411.444C341.035 411.444 341.685 412.673 341.685 414.173C341.685 415.674 342.657 418.766 343.846 421.046C345.033 423.325 346.009 426.291 346.015 427.637C346.019 428.982 346.674 430.486 347.47 430.978C348.265 431.47 348.916 432.817 348.916 433.973C348.916 435.128 350.282 439.159 351.953 442.931C356.123 452.352 356.987 454.499 359.934 462.81C361.345 466.789 363.673 472.18 365.108 474.79C366.542 477.402 367.715 480.503 367.715 481.683C367.715 482.864 368.314 484.961 369.046 486.342C369.779 487.724 372.121 493.412 374.251 498.983C376.383 504.553 378.713 510.241 379.428 511.623C380.144 513.005 380.73 515.122 380.73 516.325C380.73 517.531 381.381 518.516 382.176 518.516C382.971 518.516 383.626 519.656 383.631 521.048C383.637 522.44 384.497 525.222 385.542 527.229C386.589 529.235 388.355 533.956 389.464 537.719C390.575 541.481 391.992 544.56 392.614 544.56C393.236 544.56 393.745 545.824 393.745 547.369C393.745 548.914 394.239 550.484 394.845 550.857C395.451 551.232 397.24 555.828 398.822 561.071C400.404 566.315 402.185 570.605 402.783 570.605C403.38 570.605 403.867 572.233 403.867 574.222C403.867 576.212 404.518 577.84 405.313 577.84C406.109 577.84 406.759 579.142 406.759 580.733C406.759 582.325 407.41 583.627 408.206 583.627C409.001 583.627 409.652 585.068 409.652 586.831C409.652 592.203 413.558 586.964 416.934 577.064C418.552 572.318 420.505 566.97 421.271 565.179C422.039 563.388 423.317 560.296 424.113 558.306C424.908 556.317 426.166 553.225 426.906 551.433C427.648 549.642 429.33 545.573 430.643 542.39C431.958 539.207 433.628 535.472 434.357 534.091C435.085 532.709 435.681 530.305 435.681 528.75C435.681 527.195 436.332 525.519 437.127 525.027C437.923 524.535 438.573 522.87 438.573 521.324C438.573 519.779 439.061 518.516 439.658 518.516C440.255 518.516 442.037 514.226 443.619 508.982C445.201 503.739 446.99 499.143 447.596 498.769C448.201 498.395 448.696 496.825 448.696 495.28C448.696 493.735 449.347 492.472 450.142 492.472C450.937 492.472 451.588 490.883 451.588 488.94C451.588 486.996 452.119 485.079 452.767 484.679C453.415 484.278 455.205 480.008 456.744 475.188C458.282 470.37 460.029 466.427 460.626 466.427C461.222 466.427 461.711 464.93 461.711 463.099C461.711 461.269 462.244 459.152 462.897 458.397C463.549 457.64 465.878 452.464 468.074 446.894C470.267 441.323 472.662 435.635 473.395 434.254C474.127 432.872 474.726 430.775 474.726 429.595C474.726 428.414 475.922 425.313 477.385 422.701C478.847 420.091 481.502 413.723 483.284 408.551C486.396 399.513 487.466 396.838 492.63 385.182C493.918 382.276 494.971 379.152 494.971 378.239C494.971 377.326 496.272 373.884 497.863 370.589C499.454 367.295 500.755 363.42 500.755 361.977C500.755 360.535 501.406 359.356 502.201 359.356C502.997 359.356 503.647 358.37 503.647 357.165C503.647 355.961 504.232 353.844 504.945 352.462C505.659 351.081 507.364 347.021 508.733 343.44C510.103 339.858 511.884 335.301 512.691 333.311C513.497 331.322 514.658 328.392 515.27 326.8C522.48 308.036 524.371 303.283 525.483 301.138C526.199 299.756 526.785 297.983 526.785 297.2C526.785 296.418 528.412 292.219 530.4 287.869C532.388 283.52 534.015 278.981 534.015 277.783C534.015 276.585 534.666 275.203 535.461 274.711C536.257 274.219 536.907 272.554 536.907 271.008C536.907 269.463 537.558 268.2 538.354 268.2C539.149 268.2 539.8 267.021 539.8 265.578C539.8 264.136 541.101 260.261 542.692 256.966C544.282 253.672 545.584 250.093 545.584 249.012C545.584 247.933 546.54 245.786 547.707 244.241C548.875 242.697 549.851 240.283 549.876 238.88C549.902 237.476 550.496 235.197 551.199 233.816C551.902 232.434 553.137 229.676 553.944 227.686C554.751 225.697 556.454 221.692 557.728 218.786C559.002 215.881 560.045 212.757 560.045 211.844C560.045 210.931 561.346 207.489 562.937 204.194C564.528 200.9 565.829 197.025 565.829 195.582C565.829 194.14 566.48 192.96 567.275 192.96C568.071 192.96 568.721 191.975 568.721 190.77C568.721 189.566 569.313 187.449 570.037 186.067C572.889 180.623 578.844 165.162 578.844 163.203C578.844 162.062 579.495 161.128 580.29 161.128C581.085 161.128 581.736 159.88 581.736 158.353C581.736 152.6 583.344 151 589.121 151C592.217 151 594.751 151.651 594.751 152.447C594.751 153.243 596.541 153.904 598.728 153.916C600.914 153.929 602.048 154.416 601.247 155.001C600.444 155.585 598.564 159.645 597.068 164.022C595.571 168.399 593.786 172.598 593.102 173.355C592.418 174.11 591.859 175.839 591.859 177.196C591.859 178.555 590.476 182.494 588.786 185.95C587.095 189.408 585.226 193.235 584.631 194.455C584.037 195.675 583.091 198.76 582.532 201.311C581.972 203.862 580.913 206.321 580.179 206.776C579.444 207.229 578.844 208.57 578.844 209.755C578.844 210.94 577.543 214.605 575.952 217.899C574.361 221.194 573.06 225.069 573.06 226.512C573.06 227.954 572.438 229.133 571.679 229.133C570.919 229.133 569.871 231.412 569.349 234.198C568.827 236.983 567.939 239.262 567.375 239.262C566.813 239.262 565.455 242.559 564.359 246.587C563.261 250.617 561.842 254.237 561.205 254.631C560.567 255.026 560.045 256.612 560.045 258.157C560.045 259.702 559.394 260.965 558.599 260.965C557.803 260.965 557.13 262.43 557.102 264.221C557.073 266.012 556.12 269.104 554.984 271.094C553.847 273.083 552.894 276.175 552.865 277.967C552.838 279.758 552.164 281.222 551.368 281.222C550.573 281.222 549.922 282.524 549.922 284.116C549.922 285.708 549.272 287.01 548.476 287.01C547.681 287.01 547.03 288.638 547.03 290.627C547.03 292.617 546.46 294.244 545.765 294.244C545.069 294.244 544.11 296.193 543.633 298.577C543.157 300.96 541.45 305.639 539.837 308.977C538.226 312.314 536.907 316.225 536.907 317.667C536.907 319.11 536.257 320.289 535.461 320.289C534.666 320.289 534.015 321.274 534.015 322.48C534.015 323.683 533.424 325.8 532.699 327.182C529.848 332.627 523.893 348.087 523.893 350.046C523.893 351.188 523.316 352.121 522.61 352.121C521.906 352.121 521.009 353.912 520.617 356.1C519.959 359.778 515.098 372.634 512.142 378.507C511.446 379.889 510.878 382.006 510.878 383.209C510.878 384.415 510.227 385.4 509.432 385.4C508.636 385.4 507.986 386.579 507.986 388.022C507.986 389.464 506.726 393.252 505.188 396.44C503.649 399.626 501.95 403.987 501.412 406.13C500.874 408.271 499.856 410.382 499.149 410.819C498.441 411.258 497.863 413.204 497.863 415.147C497.863 417.09 497.212 418.679 496.417 418.679C495.622 418.679 494.971 419.664 494.971 420.87C494.971 422.073 494.4 424.19 493.701 425.572C490.31 432.281 487.74 439.313 487.74 441.879C487.74 443.443 487.09 444.723 486.294 444.723C485.499 444.723 484.848 446.026 484.848 447.617C484.848 449.209 484.198 450.511 483.402 450.511C482.607 450.511 481.956 452.009 481.956 453.839C481.956 455.669 481.409 457.786 480.741 458.541C480.073 459.297 478.675 462.195 477.632 464.98C476.591 467.766 474.794 472.323 473.638 475.109C471.252 480.864 470.755 482.128 465.38 496.089C463.235 501.66 460.882 507.347 460.149 508.729C459.417 510.111 458.819 511.886 458.819 512.672C458.819 513.459 456.963 518.189 454.697 523.182C452.43 528.176 449.406 536.027 447.977 540.628C446.549 545.229 444.823 549.337 444.145 549.756C443.467 550.176 442.912 552.108 442.912 554.051C442.912 555.994 442.351 557.583 441.664 557.583C440.977 557.583 439.291 561.162 437.914 565.538C436.539 569.913 434.824 573.859 434.102 574.305C433.379 574.752 432.789 577.031 432.789 579.372C432.789 581.713 432.242 583.627 431.574 583.627C430.906 583.627 429.463 586.395 428.367 589.777C427.272 593.158 425.585 597.489 424.617 599.397C423.65 601.306 422.023 605.701 421.001 609.164C419.978 612.626 418.635 615.459 418.013 615.459C417.391 615.459 416.882 617.087 416.882 619.077C416.882 621.066 416.231 622.694 415.436 622.694C414.641 622.694 413.99 623.957 413.99 625.502C413.99 627.048 413.396 628.678 412.67 629.127C411.944 629.577 410.91 632.544 410.373 635.723C409.837 638.902 408.804 641.504 408.078 641.504C407.352 641.504 406.759 643.131 406.759 645.121C406.759 647.11 406.109 648.738 405.313 648.738C404.518 648.738 403.867 649.724 403.867 650.929C403.867 652.133 403.269 654.25 402.537 655.631C401.804 657.013 399.461 662.701 397.331 668.272C395.199 673.842 392.87 679.53 392.154 680.912C391.438 682.294 390.853 684.41 390.853 685.614C390.853 686.82 390.202 687.805 389.406 687.805C388.611 687.805 387.96 689.033 387.96 690.534C387.96 692.034 386.989 695.126 385.8 697.407C384.613 699.686 383.637 702.652 383.631 703.997C383.626 705.343 382.971 706.846 382.176 707.338C381.381 707.83 380.73 709.496 380.73 711.041C380.73 712.586 380.079 713.849 379.284 713.849C378.488 713.849 377.838 715.477 377.838 717.467C377.838 719.456 377.187 721.084 376.392 721.084C375.596 721.084 374.946 722.432 374.946 724.081C374.946 726.746 374.704 726.837 372.776 724.908C371.583 723.714 370.607 721.836 370.607 720.735C370.607 719.634 369.348 716.125 367.809 712.938C366.27 709.752 364.571 705.391 364.033 703.248C363.495 701.106 362.477 698.995 361.77 698.558C361.063 698.12 360.485 696.174 360.485 694.231C360.485 692.288 359.834 690.699 359.039 690.699C358.243 690.699 357.592 689.397 357.592 687.805C357.592 686.213 356.942 684.911 356.146 684.911C355.351 684.911 354.702 683.771 354.705 682.379C354.709 679.98 350.212 667.965 344.55 655.249C343.133 652.066 340.164 644.904 337.955 639.333C335.744 633.763 333.401 628.586 332.749 627.83C332.096 627.074 331.563 624.958 331.563 623.128C331.563 621.298 330.912 619.8 330.117 619.8C329.321 619.8 328.671 618.867 328.671 617.725C328.671 616.583 326.974 611.538 324.901 606.512C322.826 601.485 320.636 596.071 320.032 594.479C319.429 592.887 318.26 589.957 317.436 587.968C316.612 585.978 314.13 579.793 311.922 574.222C309.712 568.652 307.371 563.476 306.719 562.719C306.067 561.964 305.533 559.847 305.533 558.017C305.533 556.186 304.883 554.689 304.087 554.689C303.292 554.689 302.641 553.426 302.641 551.88C302.641 550.335 302.068 548.718 301.369 548.285C300.669 547.852 299.014 544.189 297.693 540.144C296.369 536.099 293.363 528.585 291.012 523.446C288.659 518.308 286.734 513.73 286.734 513.272C286.734 512.341 282.862 503.221 280.828 499.365C280.099 497.983 279.504 495.866 279.504 494.662C279.504 493.457 278.853 492.472 278.058 492.472C277.262 492.472 276.611 491.143 276.611 489.52C276.611 487.896 275.39 484.153 273.896 481.2C272.402 478.248 270.723 473.717 270.166 471.13C269.608 468.543 268.552 466.427 267.821 466.427C267.088 466.427 266.489 465.255 266.489 463.823C266.489 462.39 265.97 460.599 265.335 459.844C264.7 459.087 262.982 454.888 261.517 450.511C260.052 446.134 258.294 441.935 257.61 441.178C256.926 440.423 256.366 438.632 256.366 437.199C256.366 435.767 255.715 434.595 254.92 434.595C254.125 434.595 253.474 432.967 253.474 430.978C253.474 428.988 252.823 427.36 252.028 427.36C251.233 427.36 250.582 426.403 250.582 425.232C250.582 424.06 248.955 419.421 246.967 414.923C244.978 410.424 243.351 405.522 243.351 404.03C243.351 402.537 242.701 401.316 241.905 401.316C241.11 401.316 240.459 400.014 240.459 398.422C240.459 396.831 239.809 395.528 239.013 395.528C238.218 395.528 237.567 394.307 237.567 392.814C237.567 391.322 235.919 386.275 233.903 381.6C228.221 368.422 227.559 366.866 225.805 362.611C224.904 360.423 223.679 357.33 223.086 355.738C216.362 337.711 213.801 331.864 212.631 331.864C212.029 331.864 211.537 330.041 211.537 327.813C211.537 325.585 210.793 323.016 209.882 322.105C208.971 321.193 207.085 317.318 205.694 313.496C199.155 295.538 197.727 292.042 196.761 291.607C196.19 291.351 195.302 288.901 194.789 286.165C194.277 283.429 193.279 280.833 192.575 280.397C191.869 279.962 191.292 278.341 191.292 276.796C191.292 275.251 190.642 273.988 189.846 273.988C189.051 273.988 188.4 273.002 188.4 271.797C188.4 270.593 187.826 268.476 187.123 267.095C185.791 264.477 184.477 261.281 180.733 251.56C175.965 239.185 174.641 236.368 173.586 236.368C172.985 236.368 172.493 234.089 172.493 231.304C172.493 228.518 172.004 226.237 171.409 226.234C170.46 226.229 167.89 220.542 164.545 211.047C163.572 208.282 163.468 208.306 162.213 211.569C161.439 213.582 161.053 313.13 161.273 453.927C161.608 667.511 161.887 693.329 163.912 697.21C167.494 704.075 170.25 708.724 171.203 709.509C186.436 722.039 188.043 722.493 218.038 722.765C231.554 722.887 243.755 723.286 245.152 723.651C247.085 724.157 247.69 725.827 247.69 730.658V737H160.845H74L74.4411 730.127L74.8821 723.254L93.6813 722.901C111.572 722.566 123.326 720.606 123.326 717.959C123.326 717.29 124.628 716.743 126.218 716.743C127.809 716.743 129.11 716.092 129.11 715.296C129.11 714.501 129.977 713.849 131.035 713.849C132.094 713.849 133.83 712.222 134.895 710.232C135.959 708.243 137.272 706.615 137.812 706.615C138.853 706.615 142.111 699.175 144.828 690.596C146.02 686.831 146.464 614.837 146.464 425.346C146.464 201.869 146.173 164.971 144.397 163.196C142.724 161.521 135.859 161.128 108.245 161.128H74.1591V156.064V151H155.522H236.885L239.395 156.798ZM596.723 303.335C598.025 306.744 599.089 310.325 599.089 311.293C599.089 312.263 599.74 313.054 600.535 313.054C601.331 313.054 601.981 314.691 601.981 316.692C601.981 320.166 602.408 321.412 605.994 328.431C606.861 330.124 608.01 333.867 608.551 336.75C609.092 339.634 610.113 341.993 610.818 341.993C611.526 341.993 612.104 344.271 612.104 347.057C612.104 349.842 612.755 352.121 613.55 352.121C614.346 352.121 614.996 353.749 614.996 355.738C614.996 357.728 615.573 359.356 616.279 359.356C616.983 359.356 617.885 361.147 618.285 363.335C618.682 365.522 620.383 370.886 622.063 375.251C623.744 379.617 625.119 384.338 625.119 385.741C625.119 387.145 625.77 388.294 626.565 388.294C627.36 388.294 628.011 389.566 628.011 391.12C628.011 393.824 628.921 396.499 633.276 406.599C634.356 409.106 635.241 412.23 635.241 413.541C635.241 414.852 636.543 418.62 638.134 421.914C639.724 425.209 641.026 428.954 641.026 430.237C641.026 431.52 641.557 433.187 642.204 433.944C642.852 434.699 645.238 441.179 647.506 448.341C649.775 455.503 652.172 461.982 652.835 462.738C653.498 463.494 654.041 465.571 654.041 467.355C654.041 469.139 654.616 470.953 655.32 471.389C656.023 471.823 656.926 473.979 657.323 476.176C658.103 480.471 660.876 488.731 662.911 492.813C663.599 494.195 664.163 496.312 664.163 497.516C664.163 498.721 664.814 499.706 665.609 499.706C666.405 499.706 667.055 501.659 667.055 504.047C667.055 506.434 667.706 508.388 668.502 508.388C669.297 508.388 669.948 509.405 669.948 510.648C669.948 513.72 674.406 527.59 675.942 529.296C676.621 530.052 677.178 532.168 677.178 533.998C677.178 535.828 677.829 537.326 678.624 537.326C679.419 537.326 680.07 538.42 680.07 539.755C680.07 542.555 682.238 549.655 685.991 559.137C687.431 562.777 689.649 568.963 690.92 572.882C692.191 576.802 693.752 581.312 694.388 582.904C697.241 590.04 699.255 596.234 699.925 599.922C700.323 602.12 701.225 604.276 701.928 604.71C702.632 605.146 703.208 607.09 703.208 609.033C703.208 610.977 703.858 612.565 704.654 612.565C705.449 612.565 706.1 614.193 706.1 616.183C706.1 618.172 706.751 619.8 707.546 619.8C708.341 619.8 708.992 621.714 708.992 624.055C708.992 626.396 709.643 628.713 710.438 629.205C711.233 629.697 711.884 631.102 711.884 632.327C711.884 633.553 712.795 636.607 713.909 639.115C715.022 641.622 716.792 646.766 717.841 650.547C718.888 654.328 720.254 657.42 720.876 657.42C721.498 657.42 722.011 658.56 722.017 659.952C722.028 662.84 729.748 685.904 731.184 687.34C731.704 687.861 732.129 689.806 732.129 691.664C732.129 693.52 732.78 695.04 733.576 695.04C734.371 695.04 735.022 696.628 735.022 698.571C735.022 700.515 735.597 702.459 736.301 702.895C737.004 703.329 738.021 706.624 738.559 710.215C739.097 713.805 740.148 716.743 740.894 716.743C741.642 716.743 742.252 718.006 742.252 719.552C742.252 721.097 742.914 722.77 743.723 723.269C744.531 723.769 759.828 724.112 777.714 724.033C796.125 723.949 811.366 724.491 812.841 725.28C814.808 726.333 815.297 727.937 814.843 731.837L814.24 737H691.481H568.721V731.212V725.425L608.127 725.258C629.801 725.166 648.184 724.94 648.979 724.755C649.775 724.57 650.911 724.319 651.504 724.198C652.097 724.078 651.284 720.56 649.697 716.382C648.11 712.204 646.812 707.645 646.812 706.253C646.81 704.861 646.159 703.721 645.364 703.721C644.569 703.721 643.918 701.768 643.918 699.38C643.918 696.993 643.267 695.04 642.472 695.04C641.677 695.04 641.021 693.899 641.016 692.507C641.004 689.619 633.285 666.556 631.849 665.119C631.328 664.598 630.903 662.97 630.903 661.5C630.903 660.03 630.318 657.696 629.603 656.314C628.887 654.933 627.097 649.734 625.626 644.759C624.154 639.786 622.462 635.716 621.865 635.716C621.269 635.716 620.781 633.802 620.781 631.461C620.781 629.12 620.13 626.803 619.335 626.311C618.539 625.819 617.888 624.154 617.888 622.608C617.888 621.063 617.238 619.8 616.442 619.8C615.647 619.8 614.996 618.152 614.996 616.136C614.996 614.121 614.02 610.135 612.827 607.278C611.634 604.421 610.658 600.861 610.658 599.367C610.658 597.872 610.007 596.649 609.212 596.649C608.417 596.649 607.766 595.347 607.766 593.756C607.766 592.164 607.115 590.862 606.32 590.862C605.524 590.862 604.874 588.9 604.874 586.501C604.874 584.103 604.252 581.01 603.491 579.628C601.422 575.872 594.751 555.268 594.751 552.637C594.751 551.378 594.1 550.348 593.305 550.348C592.51 550.348 591.859 549.046 591.859 547.454C591.859 544.618 590.894 544.56 544.138 544.56C514.859 544.56 496.417 544.028 496.417 543.182C496.417 540.512 499.792 534.431 501.35 534.293C502.216 534.216 521.307 534.273 543.776 534.418L584.628 534.681V530.923C584.628 528.857 583.398 524.406 581.892 521.032C578.522 513.474 577.12 509.758 576.579 506.941C575.629 501.985 568.235 483.029 567.08 482.585C566.392 482.319 565.829 480.52 565.829 478.586C565.829 476.651 565.255 473.938 564.552 472.556C561.868 467.279 560.181 462.642 559.291 458.107C558.784 455.52 557.77 453.405 557.038 453.405C556.305 453.405 555.707 451.452 555.707 449.064C555.707 446.677 555.056 444.723 554.261 444.723C553.465 444.723 552.814 443.413 552.814 441.809C552.814 440.208 552.242 437.765 551.543 436.383C549.217 431.787 545.57 419.447 545.577 416.196C545.581 414.432 546.65 410.526 547.954 407.515C550.31 402.07 552.196 397.44 554.307 391.911C554.914 390.32 556.356 386.738 557.511 383.953C558.667 381.168 560.464 376.61 561.505 373.825C562.548 371.039 563.946 368.143 564.614 367.386C565.283 366.631 565.829 364.514 565.829 362.683C565.829 360.853 566.48 359.356 567.275 359.356C568.071 359.356 568.721 358.37 568.721 357.165C568.721 355.961 569.277 353.844 569.955 352.462C573.775 344.679 576.055 339.152 577.7 333.673C578.717 330.29 580.04 327.523 580.642 327.523C581.245 327.523 581.736 325.896 581.736 323.906C581.736 321.917 582.234 320.289 582.842 320.289C583.451 320.289 585.13 316.87 586.573 312.693C590.267 302.001 592.42 297.138 593.461 297.138C593.954 297.138 595.422 299.928 596.723 303.335Z" fill="#C9985E"/>
</svg>
